<svg xmlns="http://www.w3.org/2000/svg" version="1.1" viewBox="-5.0 -10.0 110.0 135.0">
 <path d="m71.102 61.387c0.39844-1.3477 0.60156-2.7344 0.60156-4.1445 0-7.9688-6.4805-14.449-14.449-14.449s-14.461 6.4805-14.461 14.449 6.4805 14.461 14.461 14.461c1.4062 0 2.7969-0.20312 4.1328-0.60156 0.76562-0.23437 1.5703 0.20313 1.8047 0.96875 0.23438 0.76563-0.20312 1.5703-0.96875 1.8047-1.6016 0.48047-3.2773 0.72266-4.9688 0.72266-9.5703 0-17.355-7.7852-17.355-17.355 0-9.5703 7.7852-17.348 17.355-17.348 9.5703 0 17.348 7.7852 17.348 17.348 0 1.6836-0.24609 3.3477-0.71484 4.9609-0.22266 0.76562-1.0312 1.2031-1.8047 0.98047-0.77734-0.22266-1.2148-1.0312-0.98047-1.7969zm-19.957-32.539-0.96875 4.8867-3.4609 1.4297c-0.74609 0.30469-1.0938 1.1523-0.78516 1.8984 0.30469 0.74609 1.1523 1.0938 1.8984 0.78516l4.1719-1.7227c0.44922-0.18359 0.77734-0.58203 0.86719-1.0625l0.88672-4.4805h6.9805l0.87891 4.4805c0.09375 0.48047 0.41797 0.87891 0.86719 1.0625l5.9883 2.4805c0.44922 0.18359 0.96094 0.13281 1.3672-0.13281l3.7969-2.5508 4.9375 4.9336-2.5508 3.7969c-0.27734 0.40625-0.32812 0.91797-0.13281 1.3672l2.4805 5.9883c0.18359 0.44922 0.58203 0.77734 1.0625 0.86719l4.4805 0.87891v6.9805l-4.4805 0.88672c-0.48047 0.09375-0.87891 0.41797-1.0625 0.86719l-1.5898 3.8398c-0.30469 0.74609 0.039062 1.5938 0.78516 1.8984 0.18359 0.070313 0.36719 0.11328 0.55078 0.11328 0.57031 0 1.1133-0.33594 1.3359-0.89844l1.2969-3.1211 4.8867-0.96875c0.68359-0.13281 1.1719-0.73437 1.1719-1.418v-9.3555c0-0.69531-0.48828-1.2852-1.1719-1.418l-4.8867-0.96094-1.8867-4.5508 2.7852-4.1445c0.38672-0.57031 0.31641-1.3477-0.18359-1.8359l-6.6211-6.6211c-0.48828-0.48828-1.2539-0.5625-1.8359-0.18359l-4.1445 2.7773-4.5508-1.8867-0.96094-4.8867c-0.13281-0.68359-0.73438-1.1719-1.418-1.1719h-9.3672c-0.68359-0.011718-1.2852 0.47656-1.418 1.1523zm-9.6641 52.797 4.1445-2.7852 4.5508 1.8867 0.96875 4.8867c0.13281 0.68359 0.73438 1.1719 1.418 1.1719h9.3672c0.69531 0 1.2852-0.48828 1.418-1.1719l0.96094-4.8867 3.1211-1.2969c0.74609-0.30469 1.0938-1.1523 0.78516-1.8984-0.30469-0.74609-1.1523-1.0938-1.8984-0.78516l-3.8477 1.5938c-0.44922 0.18359-0.77734 0.58203-0.86719 1.0625l-0.87891 4.4805h-6.9805l-0.88672-4.4805c-0.09375-0.48047-0.41797-0.87891-0.86719-1.0625l-5.9883-2.4805c-0.44922-0.18359-0.96094-0.13281-1.3672 0.13281l-3.7773 2.5586-4.9297-4.9375 2.5508-3.7969c0.27734-0.40625 0.32813-0.91797 0.13281-1.3672l-2.4805-5.9883c-0.30469-0.74609-1.1523-1.0938-1.8984-0.78516-0.74609 0.30469-1.0938 1.1523-0.78516 1.8984l2.1836 5.2656-2.7852 4.1445c-0.38672 0.57031-0.31641 1.3477 0.17188 1.8359l6.6211 6.6211c0.49609 0.48828 1.2695 0.57031 1.8438 0.18359zm42.418 12.027-22.234-24.578c-2.3047 0.81641-4.8281 0.91797-7.2031 0.27734-6.3164-1.6953-10.152-8.0117-8.7461-14.398 0.11328-0.51953 0.5-0.92969 1.0117-1.082 0.51172-0.15234 1.0625-0.011719 1.4297 0.36719l6.2031 6.2031 4.8164-1.2852 1.2852-4.8164-6.2031-6.2031c-0.37891-0.37891-0.51172-0.91797-0.36719-1.4297 0.14453-0.51172 0.5625-0.89844 1.0703-1.0117 1.8984-0.42969 3.8984-0.37891 5.7852 0.13281 3.1445 0.83594 5.7656 2.8555 7.3984 5.6719 1.6328 2.8164 2.0625 6.1016 1.2148 9.2461-0.082031 0.30469-0.17188 0.61328-0.28516 0.90625l24.598 22.227c1.418 1.2773 2.1953 2.9688 2.2344 4.9062 0.039062 1.8672-0.70312 3.7148-2.0391 5.0625-1.3047 1.3164-3.0938 2.0625-4.918 2.0625h-0.14453c-1.9258-0.0625-3.6211-0.83594-4.9062-2.2578zm-20.766-27.273 22.906 25.336c0.75391 0.83594 1.6836 1.2539 2.8281 1.2852 1.0938 0.019531 2.1445-0.40625 2.9375-1.2031 0.79687-0.79688 1.2227-1.8477 1.1953-2.9375-0.03125-1.1445-0.44922-2.0703-1.2773-2.8164l-25.324-22.93c-0.46875-0.42969-0.61328-1.1016-0.34766-1.6719 0.20312-0.44922 0.37891-0.9375 0.51953-1.4609 0.64453-2.3867 0.30469-4.8867-0.92969-7.0312-1.2461-2.1445-3.2461-3.6836-5.6328-4.3281-0.46875-0.12109-0.94922-0.21484-1.4297-0.26562l4.5195 4.5195c0.36719 0.36719 0.51172 0.89844 0.37891 1.3984l-1.7227 6.4375c-0.13281 0.5-0.51953 0.88672-1.0312 1.0312l-6.4297 1.7227c-0.5 0.13281-1.0312-0.011719-1.3984-0.37891l-4.5312-4.5312c0.38672 3.7227 3.0195 6.9609 6.8359 7.9883 2.082 0.5625 4.2969 0.37891 6.2461-0.51953 0.19531-0.09375 0.39844-0.13281 0.60156-0.13281 0.41406 0.007813 0.80078 0.17188 1.0859 0.48828zm-50.277-36.777c0-9.2461 7.5195-16.766 16.766-16.766s16.766 7.5195 16.766 16.766c0 4.6328-1.9375 9.1016-5.3359 12.254-2.082 1.9492-3.0195 4.1953-3.0195 7.2852 0.28516 0.46094 0.46094 1.0117 0.46094 1.5938v2c0 1.1836-0.67188 2.2031-1.6641 2.7031-0.53906 3.4883-3.5703 6.1719-7.2148 6.1719s-6.6719-2.6836-7.2148-6.1719c-0.98047-0.5-1.6641-1.5195-1.6641-2.7031v-2c0-0.58203 0.17188-1.1328 0.46094-1.5938 0-3.0938-0.9375-5.3359-3.0195-7.2852-3.3789-3.1523-5.3203-7.6211-5.3203-12.254zm13.023 3c0-0.51172-0.40625-0.92969-0.91797-0.92969-0.5 0-0.92969 0.42969-0.92969 0.92969s0.42969 0.92969 0.92969 0.92969h0.91797zm2.8984 15.113h1.6836v-11.285h-1.6836zm-5 2.8984c-0.0625 0-0.12109 0.0625-0.12109 0.13281v2c0 0.070313 0.0625 0.13281 0.12109 0.13281h11.695c0.0625 0 0.12109-0.0625 0.12109-0.13281v-2c0-0.070313-0.0625-0.13281-0.12109-0.13281zm10 5.1641h-8.3047c0.60156 1.7148 2.2344 2.9375 4.1523 2.9375 1.9141 0 3.5469-1.2344 4.1523-2.9375zm-18.023-26.176c0 3.8359 1.6016 7.5312 4.4062 10.133 2.3477 2.1953 3.6016 4.7461 3.8867 7.9688h1.8281l0.003906-11.273h-0.91797c-2.1133 0-3.8281-1.7148-3.8281-3.8281 0-2.1133 1.7148-3.8281 3.8281-3.8281 2.1133 0 3.8281 1.7148 3.8281 3.8281v0.92969h1.6953v-0.92969c0-2.1133 1.7148-3.8281 3.8281-3.8281s3.8281 1.7148 3.8281 3.8281c0 2.1133-1.7148 3.8281-3.8281 3.8281h-0.94531v11.285h1.8359c0.28516-3.2227 1.5312-5.7773 3.8867-7.9688 2.8047-2.6133 4.4062-6.3047 4.4062-10.133 0-7.6445-6.2227-13.867-13.867-13.867-7.6484-0.011719-13.875 6.2148-13.875 13.855zm18.531 3.918c0.5 0 0.92969-0.42969 0.92969-0.92969s-0.42969-0.92969-0.92969-0.92969-0.92969 0.42969-0.92969 0.92969v0.92969zm-3.2148-24.059v-3.9414c0-0.80469-0.65234-1.4492-1.4492-1.4492-0.80469 0-1.4492 0.65234-1.4492 1.4492v3.9492c0 0.80469 0.65234 1.4492 1.4492 1.4492 0.80859 0 1.4492-0.65234 1.4492-1.457zm18.684 6.8477-3.418 1.9688c-0.69531 0.39844-0.92969 1.2852-0.53125 1.9805 0.26562 0.46875 0.75391 0.72266 1.2539 0.72266 0.24609 0 0.5-0.0625 0.72266-0.19531l3.418-1.9688c0.69531-0.39844 0.92969-1.2852 0.53125-1.9805-0.39453-0.69141-1.2812-0.92578-1.9766-0.52734zm-10.059-2.6953c0.5 0 0.98828-0.25391 1.2539-0.72266l1.9805-3.418c0.39844-0.69531 0.16406-1.582-0.53125-1.9805-0.69531-0.39844-1.582-0.16406-1.9805 0.53125l-1.9805 3.418c-0.39844 0.69531-0.16406 1.582 0.53125 1.9805 0.22656 0.12891 0.46875 0.19141 0.72656 0.19141zm-34.156 17.438h3.9492c0.80469 0 1.4492-0.65234 1.4492-1.4492 0-0.80469-0.65234-1.4492-1.4492-1.4492h-3.9492c-0.80469 0-1.4492 0.65234-1.4492 1.4492 0.003906 0.80859 0.64453 1.4492 1.4492 1.4492zm7.3672-12.773-3.418-1.9688c-0.69531-0.39844-1.582-0.16406-1.9805 0.53125-0.39844 0.69531-0.16406 1.582 0.53125 1.9805l3.418 1.9688c0.22266 0.13281 0.48047 0.19531 0.72266 0.19531 0.5 0 0.98828-0.26562 1.2539-0.72266 0.40234-0.69922 0.16797-1.5859-0.52734-1.9844zm6.6445-4.6641c0.24609 0 0.5-0.0625 0.72266-0.19531 0.69531-0.39844 0.92969-1.2852 0.53125-1.9805l-1.9688-3.418c-0.39844-0.69531-1.2852-0.92969-1.9805-0.53125-0.69141 0.39844-0.92578 1.2891-0.52734 1.9805l1.9688 3.418c0.26562 0.46094 0.75391 0.72656 1.2539 0.72656zm36.246 11.867v-11.867c-1.9883-0.62109-3.4375-2.4805-3.4375-4.6641 0-2.6953 2.1953-4.8789 4.8867-4.8789 2.6953 0 4.8789 2.1953 4.8789 4.8789 0 2.1836-1.4492 4.0391-3.4297 4.6641v11.867c0 0.80469-0.65234 1.4492-1.4492 1.4492s-1.4492-0.65234-1.4492-1.4492zm-0.53125-16.531c0 1.0938 0.88672 1.9805 1.9883 1.9805 1.0938 0 1.9805-0.88672 1.9805-1.9805s-0.88672-1.9805-1.9805-1.9805c-1.1016 0-1.9883 0.89062-1.9883 1.9805zm31.223 16.98v-8.2969c-1.9883-0.62109-3.4297-2.4805-3.4297-4.6641 0-2.6953 2.1953-4.8789 4.8789-4.8789s4.8789 2.1953 4.8789 4.8789c0 2.1836-1.4492 4.0391-3.4297 4.6641v8.8867c0 0.38672-0.15234 0.75391-0.42969 1.0312l-8.2422 8.2461c-0.28516 0.28516-0.65234 0.42969-1.0195 0.42969-0.36719 0-0.74609-0.14453-1.0312-0.42969-0.57031-0.57031-0.5625-1.4883 0-2.0508zm-0.52734-12.961c0 1.0938 0.88672 1.9805 1.9805 1.9805s1.9805-0.88672 1.9805-1.9805-0.88672-1.9805-1.9805-1.9805c-1.0938 0.003907-1.9805 0.89063-1.9805 1.9805zm-50.133 65.676c0.57031 0.57031 0.57031 1.4883 0 2.0508l-8.2539 8.2539c-0.27734 0.27734-0.64453 0.42969-1.0312 0.42969h-8.8906c-0.62109 1.9883-2.4805 3.4297-4.6641 3.4297-2.6953 0-4.8789-2.1953-4.8789-4.8789 0-2.6836 2.1953-4.8789 4.8789-4.8789 2.1836 0 4.0391 1.4492 4.6641 3.4297h8.2969l7.8281-7.8281c0.55859-0.57031 1.4766-0.57031 2.0508-0.007813zm-20.859 9.2734c0-1.0938-0.88672-1.9805-1.9805-1.9805s-1.9805 0.88672-1.9805 1.9805 0.88672 1.9805 1.9805 1.9805 1.9805-0.88672 1.9805-1.9805z"/>
<text x="0.0" y="117.5" font-size="5.0" font-weight="bold" font-family="Arbeit Regular, Helvetica, Arial-Unicode, Arial, Sans-serif" fill="#000000">Created by Ali Khamdan</text><text x="0.0" y="122.5" font-size="5.0" font-weight="bold" font-family="Arbeit Regular, Helvetica, Arial-Unicode, Arial, Sans-serif" fill="#000000">from Noun Project</text></svg>