<svg xmlns="http://www.w3.org/2000/svg" version="1.1" viewBox="-5.0 -10.0 110.0 135.0">
 <path d="m64.5 40.652c-0.13281-0.68359-0.73438-1.1719-1.4297-1.1719h-4.0391c-0.86719-11.746-10.695-21.031-22.652-21.031-12.52 0-22.715 10.195-22.715 22.715 0 6.2773 2.6328 12.328 7.2227 16.613 2.7461 2.5625 4.1016 5.4688 4.3359 9.3281-1.918 0.63281-3.3164 2.4375-3.3164 4.5703v1.3789c0 2.6523 2.1523 4.8047 4.8047 4.8047h0.10156v2.1328c0 2.7852 2.2656 5.0508 5.0391 5.0508h4.1836l5.7773 5.7773c0.48828 0.48828 1.2539 0.5625 1.8359 0.18359l3.918-2.6211 4.2539 1.7656 0.91797 4.6211c0.13281 0.68359 0.73438 1.1719 1.4297 1.1719h8.9062c0.69531 0 1.2969-0.48828 1.4297-1.1719l0.91797-4.6211 4.2539-1.7656 3.918 2.6211c0.57031 0.38672 1.3477 0.30469 1.8359-0.18359l6.3047-6.3047c0.48828-0.48828 0.5625-1.2656 0.18359-1.8359l-2.6211-3.9062 1.7539-4.2852 4.6211-0.91797c0.68359-0.13281 1.1719-0.73437 1.1719-1.4297v-8.9062c0-0.69531-0.48828-1.2969-1.1719-1.4297l-4.6211-0.91797-1.7656-4.2539 2.6211-3.918c0.38672-0.57031 0.30469-1.3477-0.18359-1.8359l-2.1211-2.1211 1.3359-1.3359 5.6445 1.5117c0.12109 0.03125 0.25391 0.050781 0.37891 0.050781 0.37891 0 0.75391-0.15234 1.0312-0.42969l7.5117-7.5117c0.36719-0.36719 0.51172-0.89844 0.37891-1.4062-0.13281-0.5-0.53125-0.89844-1.0312-1.0312l-4.0117-1.082 1.9492-1.9492c0.57031-0.57031 0.57031-1.4883 0-2.0508-0.57031-0.57031-1.4883-0.57031-2.0508 0l-1.9492 1.9492-1.082-4.0117c-0.13281-0.5-0.53125-0.88672-1.0312-1.0312-0.5-0.13281-1.0391 0.011718-1.4062 0.37891l-7.5117 7.5117c-0.36719 0.36719-0.51172 0.89844-0.37891 1.4062l1.5117 5.6445-1.3398 1.3438-2.1211-2.1211c-0.48828-0.48828-1.2539-0.5625-1.8359-0.18359l-3.918 2.6211-4.2539-1.7656zm22.02 5.2656-3.2031-0.85547 5.1328-5.1328 3.2031 0.85547zm-0.98828-11.254 0.85547 3.2031-5.1445 5.1445-0.84375-3.2148zm-62.652 20.98c-4-3.7344-6.2969-9.0117-6.2969-14.48 0-10.918 8.8867-19.805 19.805-19.805s19.805 8.8867 19.805 19.805c0 5.4688-2.2969 10.746-6.2969 14.48-3.2773 3.0508-4.9609 6.6445-5.2539 11.215h-6.8164l0.003906-18.105c1.7969-1.0703 3.8867-2.8555 6.2031-5.7539 0.5-0.62109 0.39844-1.5391-0.22266-2.0391s-1.5391-0.39844-2.0391 0.22266c-1.6016 1.9883-3.0117 3.3477-4.2344 4.2773-0.51172-1.9375-1.6641-3.7852-3.3359-4.5195-1.5391-0.67188-3.2227-0.26562-4.6211 1.1328-1.3359 1.3359-1.8281 3.1523-1.2969 4.8555 0.51172 1.6719 1.8984 2.8789 3.7148 3.2227 0.71484 0.13281 1.7031 0.17188 2.9375-0.13281v16.836h-6.7852c-0.3125-4.5703-2.0039-8.1602-5.2695-11.211zm40.641 12.051c0 2.6953-2.1953 4.8984-4.8984 4.8984-2.6953 0-4.8984-2.1953-4.8984-4.8984 0-2.6953 2.1953-4.8984 4.8984-4.8984 0.81641 0 1.5938 0.20312 2.2773 0.5625l-3.3047 3.3047c-0.57031 0.57031-0.57031 1.4883 0 2.0508 0.28516 0.28516 0.65234 0.42969 1.0312 0.42969s0.74609-0.14453 1.0312-0.42969l3.3047-3.3047c0.35547 0.69141 0.55859 1.4688 0.55859 2.2852zm-0.50781-6.4414c-1.2539-0.85547-2.7656-1.3555-4.3867-1.3555-4.3047 0-7.8047 3.5-7.8047 7.8047s3.5 7.8047 7.8047 7.8047 7.8047-3.5 7.8047-7.8047c0-1.6211-0.5-3.1445-1.3555-4.3867l3.5938-3.5938c1.7461 2.1953 2.7969 4.9688 2.7969 7.9883 0 7.082-5.7539 12.836-12.836 12.836-3.5195 0-6.8984-1.4688-9.3047-4 0.92969-0.87891 1.5117-2.1211 1.5117-3.5v-1.3789c0-2.1211-1.3789-3.918-3.2852-4.5625 0.22266-3.8555 1.5938-6.7773 4.3359-9.3359 0.65234-0.61328 1.2656-1.2539 1.8359-1.9375 1.5625-0.64453 3.2031-0.96875 4.9062-0.96875 3.0195 0 5.7969 1.0508 7.9883 2.7969zm-28.133-14.285c-1.1836 0.4375-1.9805 0.38672-2.3477 0.31641-0.74609-0.14453-1.2852-0.59375-1.4805-1.2148-0.20312-0.66406 0.011719-1.3867 0.58203-1.9492 0.48047-0.48047 0.83594-0.60156 1.0703-0.60156 0.15234 0 0.25391 0.050781 0.32812 0.070313 0.80469 0.35938 1.6523 1.7891 1.8477 3.3789zm-10.062 26.062v-1.3789c0-1.0508 0.85547-1.8984 1.8984-1.8984h19.305c1.0508 0 1.8984 0.85547 1.8984 1.8984v1.3789c0 0.81641-0.51172 1.5-1.2227 1.7773-0.03125 0.011718-0.0625 0.019531-0.09375 0.03125-0.18359 0.0625-0.37891 0.09375-0.57031 0.09375h-1.5508l-16.203-0.003906h-1.5508c-1.0547 0.007812-1.9102-0.84766-1.9102-1.8984zm4.9062 6.9492v-2.1328h13.297v2.1328c0 1.1836-0.96094 2.1445-2.1445 2.1445h-9.0117c-1.1797-0.003906-2.1406-0.96094-2.1406-2.1445zm49.105-27.879-2.3867 3.5703c-0.27734 0.40625-0.31641 0.91797-0.13281 1.3672l2.3555 5.6953c0.18359 0.44922 0.58203 0.77734 1.0625 0.86719l4.2148 0.83594v6.5195l-4.2148 0.83594c-0.48047 0.09375-0.87891 0.41797-1.0625 0.86719l-2.3555 5.7031c-0.18359 0.44922-0.13281 0.96094 0.13281 1.3672l2.3867 3.5625-4.6133 4.6133-3.5703-2.3867c-0.40625-0.26562-0.91797-0.31641-1.3672-0.13281l-5.6953 2.3555c-0.44922 0.18359-0.77734 0.58203-0.86719 1.0625l-0.83594 4.2148h-6.5195l-0.83594-4.2148c-0.09375-0.48047-0.41797-0.87891-0.86719-1.0625l-5.6953-2.3633c-0.44922-0.18359-0.96094-0.13281-1.3672 0.13281l-3.5703 2.3867-2.8789-2.8789h0.72266c2.7852 0 5.0508-2.2656 5.0508-5.0508v-2.1328h0.09375c0.18359 0 0.36719-0.011719 0.53906-0.03125 2.9805 3.5391 7.418 5.6328 12.062 5.6328 8.6836 0 15.746-7.0625 15.746-15.746 0-3.8164-1.3672-7.3281-3.6328-10.051l6.8242-6.8125zm-8.1836-2.2227 3.5703-2.3867 1.2773 1.2773-6.8164 6.8164c-2.7227-2.2656-6.2344-3.6328-10.051-3.6328-0.79688 0-1.582 0.0625-2.3555 0.17188 1.6445-2.9805 2.6133-6.3164 2.8047-9.7461h2.8164l0.83594 4.2148c0.09375 0.48047 0.41797 0.87891 0.86719 1.0625l5.6953 2.3555c0.43359 0.19141 0.95703 0.14062 1.3555-0.13281zm-35.715-36.051v-8.2891c0-0.80469 0.65234-1.4492 1.4492-1.4492s1.4492 0.65234 1.4492 1.4492v8.2969c0 0.80469-0.65234 1.4492-1.4492 1.4492s-1.4492-0.65234-1.4492-1.457zm-17.613-2.7891c-0.39844-0.69531-0.16406-1.582 0.53125-1.9883 0.69531-0.39844 1.582-0.16406 1.9883 0.53125l4.1445 7.1836c0.39844 0.69531 0.16406 1.582-0.53125 1.9883-0.22266 0.13281-0.48047 0.19531-0.72266 0.19531-0.5 0-0.98828-0.26562-1.2539-0.72266zm-13.039 11.582c0.39844-0.69531 1.2852-0.92969 1.9883-0.53125l7.1836 4.1445c0.69531 0.39844 0.92969 1.2852 0.53125 1.9883-0.26562 0.46875-0.75391 0.72266-1.2539 0.72266-0.24609 0-0.5-0.0625-0.72266-0.19531l-7.1836-4.1445c-0.70703-0.40234-0.94141-1.2891-0.54297-1.9844zm44.508-5.8555 4.1445-7.1836c0.39844-0.69531 1.2852-0.92969 1.9883-0.53125 0.69531 0.39844 0.92969 1.2852 0.53125 1.9883l-4.1445 7.1836c-0.26563 0.46875-0.75391 0.72266-1.2539 0.72266-0.24609 0-0.5-0.0625-0.72266-0.19531-0.70703-0.40234-0.94141-1.2891-0.54297-1.9844zm10 11.457c-0.39844-0.69531-0.16406-1.582 0.53125-1.9883l7.1836-4.1445c0.69531-0.39844 1.582-0.16406 1.9883 0.53125 0.39844 0.69531 0.16406 1.582-0.53125 1.9883l-7.1836 4.1445c-0.22266 0.13281-0.48047 0.19531-0.72266 0.19531-0.51172 0-0.98828-0.26562-1.2656-0.72656z"/>
<text x="0.0" y="117.5" font-size="5.0" font-weight="bold" font-family="Arbeit Regular, Helvetica, Arial-Unicode, Arial, Sans-serif" fill="#000000">Created by Ali Khamdan</text><text x="0.0" y="122.5" font-size="5.0" font-weight="bold" font-family="Arbeit Regular, Helvetica, Arial-Unicode, Arial, Sans-serif" fill="#000000">from Noun Project</text></svg>