<svg xmlns="http://www.w3.org/2000/svg" version="1.1" viewBox="-5.0 -10.0 110.0 135.0">
 <path d="m59.02 41.602c9.5 0 17.234 7.7227 17.234 17.234 0 6.5703-3.6641 12.488-9.5508 15.43-0.71484 0.35547-1.5938 0.070313-1.9492-0.65234-0.35547-0.71484-0.070312-1.5938 0.65234-1.9492 4.8984-2.4492 7.9375-7.3555 7.9375-12.828 0-7.8984-6.4297-14.328-14.328-14.328s-14.328 6.4297-14.328 14.328c0 6.4688 4.3164 11.961 10.223 13.723l-0.57031-0.57031c-0.5625-0.57031-0.5625-1.4883 0-2.0508 0.57031-0.5625 1.4883-0.5625 2.0508 0l3.6445 3.6523c0.03125 0.03125 0.070313 0.070312 0.10156 0.11328 0.011719 0.011719 0.019531 0.03125 0.03125 0.039063 0.019531 0.019531 0.039062 0.050781 0.050781 0.070312s0.019531 0.039062 0.03125 0.050781c0.011719 0.019531 0.03125 0.039063 0.039062 0.070313 0.011719 0.019531 0.019532 0.039062 0.03125 0.0625 0.011719 0.019531 0.019532 0.050781 0.03125 0.070312 0.011719 0.019532 0.011719 0.039063 0.019532 0.050782 0.011718 0.03125 0.019531 0.050781 0.03125 0.082031 0.011718 0.019531 0.011718 0.039062 0.011718 0.050781 0.011719 0.03125 0.011719 0.050781 0.019532 0.082031 0 0.019531 0.011718 0.039063 0.011718 0.0625 0 0.03125 0.011719 0.050781 0.011719 0.082031v0.09375 0.050782 0.050781 0.09375c0 0.03125-0.011719 0.050781-0.011719 0.082031 0 0.019532-0.011718 0.039063-0.011718 0.0625-0.011719 0.03125-0.011719 0.050782-0.019532 0.082032 0 0.019531-0.011718 0.039062-0.011718 0.050781-0.011719 0.03125-0.019532 0.050781-0.03125 0.082031-0.011719 0.019531-0.011719 0.039062-0.019532 0.050781-0.011718 0.019531-0.019531 0.050781-0.03125 0.070313-0.011718 0.019531-0.019531 0.039062-0.03125 0.0625-0.011718 0.019531-0.03125 0.039062-0.039062 0.070312-0.011719 0.019532-0.019531 0.039063-0.03125 0.050782-0.019531 0.019531-0.03125 0.050781-0.050781 0.070312-0.011719 0.011719-0.019531 0.03125-0.03125 0.039062-0.03125 0.039063-0.0625 0.070313-0.10156 0.11328l-3.6445 3.6523c-0.28516 0.28516-0.65234 0.42969-1.0312 0.42969-0.36719 0-0.74609-0.14453-1.0195-0.42969-0.57031-0.5625-0.57031-1.4883 0-2.0508l1.4688-1.4805c-7.9688-1.5-14.02-8.5195-14.02-16.93 0.007813-9.5078 7.7305-17.242 17.23-17.242zm31.898-1.3242c3.2773 5.6133 5 12.031 5 18.562 0 20.348-16.551 36.898-36.898 36.898-5.3164 0-10.461-1.1133-15.254-3.2969-0.72266-0.33594-1.0508-1.1953-0.72266-1.918 0.33594-0.72266 1.1953-1.0508 1.918-0.72266 4.418 2.0117 9.1523 3.0312 14.062 3.0312 18.746 0 34-15.254 34-34 0-11.082-5.5-21.52-14.5-27.848-2.9883 2.6836-6.5938 4.5117-10.418 5.3789l2.4375 1.0117 4.1133-2.7539c0.57031-0.38672 1.3477-0.30469 1.8359 0.18359l6.5625 6.5625c0.48828 0.48828 0.5625 1.2539 0.18359 1.8359l-2.7539 4.1133 1.8672 4.5 4.8477 0.96094c0.68359 0.13281 1.1719 0.73438 1.1719 1.418v9.2852c0 0.69531-0.48828 1.2852-1.1719 1.418l-4.8477 0.96094-1.8672 4.5117 2.7539 4.1016c0.38672 0.57031 0.30469 1.3477-0.18359 1.8359l-6.5625 6.5703c-0.48828 0.48828-1.2539 0.5625-1.8359 0.18359l-4.1133-2.7539-4.5 1.8672-0.96094 4.8477c-0.13281 0.68359-0.73438 1.1719-1.418 1.1719h-9.2852c-0.69531 0-1.2852-0.48828-1.418-1.1719l-0.96094-4.8477-4.5117-1.8672-4.1016 2.7539c-0.57031 0.38672-1.3477 0.31641-1.8359-0.17188l-0.82812-0.82812-0.27734 0.11328-0.96094 4.8477c-0.13281 0.68359-0.73438 1.1719-1.418 1.1719h-9.2969c-0.69531 0-1.2852-0.48828-1.418-1.1719l-0.96094-4.8477-4.5-1.8672-4.1133 2.7539c-0.57031 0.38672-1.3477 0.30469-1.8359-0.18359l-6.5625-6.5703c-0.48828-0.48828-0.5625-1.2539-0.18359-1.8359l2.7539-4.1016-1.8477-4.5156-4.8477-0.95703c-0.68359-0.13281-1.1719-0.72656-1.1719-1.418v-9.2852c0-0.69531 0.48828-1.2852 1.1719-1.418l4.8477-0.96094 1.8672-4.5-2.7539-4.1133c-0.38672-0.57031-0.30469-1.3477 0.18359-1.8359l6.5625-6.5625c0.48828-0.48828 1.2539-0.5625 1.8359-0.18359l4.1133 2.7539 4.5-1.8672 0.96094-4.8477c0.13281-0.68359 0.73438-1.1719 1.418-1.1719h9.2969c0.69531 0 1.2852 0.48828 1.418 1.1719l0.96094 4.8477 0.27734 0.11328 0.82812-0.81641c0.48828-0.48828 1.2539-0.5625 1.8359-0.18359l4.1016 2.7539 4.5117-1.8672 0.24609-1.2227c-5.6523-2.9805-9.9297-8.2148-11.621-14.512-0.13281-0.5 0.011719-1.0391 0.37891-1.4062 5.8477-5.8359 14.43-8.1328 22.387-6 7.7852 2.0938 13.961 8.1328 16.234 15.855 2.2148 1.5 4.2656 3.2227 6.1016 5.1641-0.22266-1.1328-0.40625-2.2656-0.55078-3.4062-4.2461-2.7461-6.8555-7.4883-6.8555-12.562 0-5.3164 2.8555-10.277 7.4688-12.949 0.44922-0.25391 1-0.25391 1.4609 0 4.6133 2.6719 7.4688 7.6328 7.4688 12.949 0 4.9883-2.5195 9.6641-6.6328 12.418 0.42969 3.1445 1.1328 6.2461 2.1133 9.2656 0.21875 0.37891 0.46484 0.77734 0.69922 1.1758zm-6.1211-14.316c-0.24609-4.2148-0.019531-8.4609 0.69531-12.621 0.13281-0.78516 0.88672-1.3164 1.6719-1.1836 0.78516 0.13281 1.3164 0.88672 1.1836 1.6719-0.70312 4.1641-0.90625 8.4062-0.61328 12.613 2.5625-2.2656 4.082-5.5508 4.082-9.0312 0-4-2.0117-7.7461-5.2969-9.9805-3.2852 2.2344-5.2969 5.9805-5.2969 9.9805 0 3.2344 1.3164 6.3125 3.5742 8.5508zm-27.043 7.3945c6.3672 1.7031 13.184 0.17188 18.203-3.9883-2.3359-1.3477-4.5117-2.2539-6.6445-2.8867-3.9375 2.6133-8.5 3.9883-13.234 3.9883h-0.03125c-0.80469 0-1.4492-0.65234-1.4492-1.4492s0.65234-1.4492 1.4492-1.4492h0.019531c3.1719 0 6.2461-0.70312 9.0625-2.0508-0.68359-0.12109-1.3789-0.22266-2.0703-0.30469h-0.03125c-1.3555-0.17188-2.7227-0.31641-4.1445-0.46094-3.2773-0.32812-6.6641-0.66406-10.438-1.5703-0.77734-0.18359-1.2539-0.96875-1.0703-1.7461s0.96875-1.2539 1.7461-1.0703c3.3672 0.80469 6.4609 1.1445 9.4609 1.4492-0.87891-0.98047-1.5625-2-2.0391-3.082-0.32812-0.73438 0-1.5938 0.73438-1.918 0.73438-0.32812 1.5938 0 1.918 0.73438 0.76563 1.7344 2.3047 3.3555 4.5703 4.8359 1.8672 0.25391 3.7461 0.59375 5.6641 1.1211 0.011718 0 0.019531 0 0.019531 0.011719 1.9805 0.55078 4.0117 1.2969 6.1328 2.3672-2.5508-5.2031-7.2656-9.1641-12.969-10.695-6.6953-1.7969-13.879-0.011718-18.969 4.6641 2.0781 6.5625 7.418 11.695 14.109 13.5zm-19.234 46.473-3.5312-3.5312c-0.09375-0.09375-0.16406-0.18359-0.22266-0.28516-0.4375 0.03125-0.88672 0.050781-1.3359 0.050781-9.5 0-17.234-7.7227-17.234-17.223s7.7227-17.234 17.234-17.234c0.4375 0 0.88672 0.019531 1.3359 0.050781 0.0625-0.10156 0.13281-0.20312 0.22266-0.28516l3.5312-3.5312c-0.38672-0.20312-0.67188-0.57031-0.76562-1.0117l-0.87891-4.4375h-6.9062l-0.87891 4.4375c-0.09375 0.48047-0.41797 0.87891-0.86719 1.0625l-5.9375 2.4609c-0.44922 0.18359-0.96094 0.13281-1.3672-0.13281l-3.7656-2.5195-4.8789 4.8789 2.5195 3.7656c0.26562 0.39844 0.31641 0.91797 0.13281 1.3672l-2.4609 5.9375c-0.18359 0.44922-0.58203 0.77734-1.0625 0.86719l-4.4375 0.87891v6.8984l4.4375 0.87891c0.48047 0.09375 0.87891 0.41797 1.0625 0.86719l2.4609 5.9375c0.18359 0.44922 0.13281 0.96094-0.13281 1.3672l-2.5195 3.7539 4.8789 4.8789 3.7656-2.5195c0.40625-0.27734 0.91797-0.32812 1.3672-0.13281l5.9375 2.4609c0.44922 0.18359 0.77734 0.58203 0.86719 1.0625l0.87891 4.4375h6.9062l0.87891-4.4492c0.09375-0.4375 0.36719-0.80469 0.76562-1.0078zm-8.8477-16.348v-9.2852c0-0.69531 0.48828-1.2852 1.1719-1.418l4.8477-0.96094 1.8672-4.5-1.7461-2.6016c-0.79688-0.13281-1.6016-0.20312-2.3867-0.20312-7.8984 0-14.328 6.4297-14.328 14.328 0 7.8984 6.4297 14.328 14.328 14.328 0.80469 0 1.6016-0.070313 2.3867-0.20312l1.7461-2.6016-1.8672-4.5117-4.8477-0.96094c-0.67188-0.125-1.1719-0.71875-1.1719-1.4102zm33.707-26.551h-0.40625c-1.9883 0-3.9883-0.25391-5.9609-0.78516-0.69531-0.18359-1.3789-0.40625-2.0508-0.65234l-0.26563 1.3281c-0.09375 0.48047-0.41797 0.87891-0.86719 1.0625l-5.9375 2.4609c-0.44922 0.18359-0.96094 0.13281-1.3672-0.13281l-3.7539-2.5195-0.65234 0.65234c-0.011719 0.011719-0.019532 0.019531-0.03125 0.03125l-4.1953 4.1953c0.019531 0.019532 0.03125 0.050782 0.050781 0.070313l2.4805 3.6953c0.27734 0.40625 0.32812 0.91797 0.13281 1.3672l-2.4688 5.9375c-0.18359 0.44922-0.58203 0.77734-1.0625 0.86719l-4.4375 0.87891v6.8984l4.4375 0.87891c0.48047 0.09375 0.87891 0.41797 1.0625 0.86719l2.4688 5.9375c0.18359 0.44922 0.13281 0.96094-0.13281 1.3672l-2.4805 3.6953c-0.011718 0.019531-0.03125 0.039062-0.039062 0.0625l4.1523 4.1523c0.039062 0.039062 0.082031 0.082031 0.12109 0.12109l0.60156 0.60156 3.7539-2.5195c0.40625-0.27734 0.91797-0.32812 1.3672-0.13281l5.9375 2.4609c0.44922 0.18359 0.77734 0.58203 0.86719 1.0625l0.87891 4.4375h6.8984l0.87891-4.4375c0.09375-0.48047 0.41797-0.87891 0.86719-1.0625l5.9375-2.4609c0.44922-0.18359 0.96094-0.13281 1.3672 0.13281l3.7656 2.5195 4.8789-4.8789-2.5195-3.7539c-0.27734-0.40625-0.31641-0.91797-0.13281-1.3672l2.4688-5.9375c0.18359-0.44922 0.58203-0.77734 1.0625-0.86719l4.4375-0.87891v-6.8984l-4.4375-0.87891c-0.48047-0.09375-0.87891-0.41797-1.0625-0.86719l-2.4688-5.9375c-0.18359-0.44922-0.13281-0.96094 0.13281-1.3672l2.5195-3.7656-4.8789-4.8789-3.7656 2.5195c-0.40625 0.26562-0.91797 0.31641-1.3672 0.13281l-5.9375-2.4609c-0.42969-0.16797-0.73828-0.52734-0.84766-0.95312z"/>
<text x="0.0" y="117.5" font-size="5.0" font-weight="bold" font-family="Arbeit Regular, Helvetica, Arial-Unicode, Arial, Sans-serif" fill="#000000">Created by Ali Khamdan</text><text x="0.0" y="122.5" font-size="5.0" font-weight="bold" font-family="Arbeit Regular, Helvetica, Arial-Unicode, Arial, Sans-serif" fill="#000000">from Noun Project</text></svg>