<svg xmlns="http://www.w3.org/2000/svg" version="1.1" viewBox="-0.0 0.0 100.0 100.0">
 <path d="m13.328 69.664c0-0.80469 0.65234-1.4492 1.4492-1.4492h23.723c0.80469 0 1.4492 0.65234 1.4492 1.4492 0 0.80469-0.65234 1.4492-1.4492 1.4492h-23.715c-0.80469 0-1.457-0.64453-1.457-1.4492zm1.457 10.824h23.723c0.80469 0 1.4492-0.65234 1.4492-1.4492 0-0.80469-0.65234-1.4492-1.4492-1.4492l-23.723 0.003906c-0.80469 0-1.4492 0.65234-1.4492 1.4492-0.007813 0.80469 0.64453 1.4453 1.4492 1.4453zm79.469 5.7578c1.0703 1.0703 1.6523 2.4883 1.6523 4.0117 0 1.5195-0.59375 2.9375-1.6523 4.0117-1.1016 1.0977-2.5508 1.6484-4 1.6484-1.4492 0-2.8984-0.55078-4-1.6523l-11.059-11.051v11.246c0 0.80469-0.65234 1.4492-1.4492 1.4492l-62.164-0.003906c-0.80469 0-1.4492-0.65234-1.4492-1.4492v-4.582l-4.5938 0.003906c-0.80469 0-1.457-0.65625-1.457-1.4492v-70.879-0.050781-0.050781c0-0.0625 0.011719-0.12109 0.019531-0.18359 0.011719-0.0625 0.03125-0.12109 0.050782-0.18359 0.011718-0.011719 0.011718-0.03125 0.019531-0.039062 0.019531-0.050781 0.039063-0.11328 0.070313-0.16406v-0.011718c0.03125-0.050782 0.0625-0.11328 0.10156-0.16406 0.011719-0.011719 0.019531-0.03125 0.03125-0.039063 0.039062-0.050781 0.082031-0.10156 0.12109-0.14453l12.023-12.008c0.039063-0.039063 0.09375-0.09375 0.14453-0.12109 0.011719-0.011719 0.03125-0.019531 0.039063-0.03125 0.050781-0.039063 0.10156-0.070313 0.16406-0.10156 0 0 0.011718 0 0.011718-0.011718 0.050782-0.03125 0.10156-0.050782 0.16406-0.070313 0.019531-0.011719 0.03125-0.011719 0.050781-0.019531 0.0625-0.019531 0.12109-0.039062 0.18359-0.050781h0.011718c0.0625-0.011719 0.12109-0.019531 0.18359-0.019531h0.050782 0.050781 50.152c0.80469 0 1.4492 0.65234 1.4492 1.4492v4.582h4.582c0.80469 0 1.4492 0.65234 1.4492 1.4492v35.613c0.57031 0.60156 1.1133 1.2344 1.6016 1.9062l4.5391-4.5391h-1.9375c-0.80469 0-1.4492-0.65234-1.4492-1.4492s0.65234-1.4492 1.4492-1.4492h5.4492 0.019531c0.039063 0 0.082032 0 0.12109 0.011718 0.019531 0 0.050781 0.011719 0.070312 0.011719 0.019532 0 0.039063 0.011719 0.070313 0.011719 0.03125 0.011718 0.050781 0.011718 0.082031 0.019531 0.019532 0.011719 0.039063 0.011719 0.0625 0.019531 0.019532 0.011719 0.050782 0.019532 0.070313 0.03125 0.019531 0.011719 0.039062 0.011719 0.0625 0.019532 0.019531 0.011718 0.039062 0.019531 0.0625 0.03125 0.019531 0.011718 0.039062 0.019531 0.0625 0.03125 0.019531 0.011718 0.039062 0.019531 0.0625 0.03125 0.019531 0.011718 0.039062 0.019531 0.0625 0.039062 0.019531 0.011719 0.039062 0.03125 0.0625 0.050781 0.019531 0.011719 0.03125 0.019531 0.050781 0.039063 0.03125 0.03125 0.070312 0.0625 0.10156 0.09375 0 0 0.011719 0 0.011719 0.011718 0 0 0 0.011719 0.011719 0.011719 0.03125 0.03125 0.0625 0.0625 0.09375 0.10156 0.011719 0.019531 0.03125 0.039062 0.039062 0.050781 0.011719 0.019531 0.03125 0.039063 0.039063 0.0625 0.011719 0.019531 0.03125 0.039063 0.039063 0.0625 0.011718 0.019531 0.019531 0.039063 0.03125 0.0625 0.011718 0.019531 0.019531 0.039063 0.03125 0.070313 0.011718 0.019531 0.019531 0.039062 0.03125 0.0625 0.011718 0.019531 0.019531 0.039062 0.019531 0.0625 0.011719 0.019531 0.019531 0.039062 0.019531 0.070312 0.011719 0.019531 0.011719 0.039062 0.019531 0.0625 0.011719 0.019531 0.011719 0.050781 0.019531 0.070312 0 0.019532 0.011719 0.050782 0.011719 0.082032 0 0.019531 0.011719 0.039062 0.011719 0.0625 0 0.050781 0.011719 0.09375 0.011719 0.14453v5.4375c0 0.80469-0.65234 1.4492-1.4492 1.4492-0.80469 0-1.4492-0.65234-1.4492-1.4492v-1.9375l-5 5c1.4609 2.7656 2.2969 5.9062 2.2969 9.2461 0 3.9062-1.1445 7.5625-3.1016 10.633l3.3164 3.3164c0.57031-0.5 1.4375-0.48047 1.9883 0.0625zm-18.426-12.398c-0.61328 0.70312-1.2773 1.3672-1.9805 1.9688l3.0195 3.0195 1.9688-1.9688zm-22.023-10.062 8.6133-8.6211c0.27734-0.27734 0.64453-0.42969 1.0312-0.42969s0.75391 0.15234 1.0312 0.42969l3.1211 3.1328 2.6211-2.6211c-0.48047-0.86719-1.082-1.6641-1.7969-2.3789-2.0195-2.0195-4.7148-3.1328-7.5703-3.1328s-5.5391 1.1133-7.5625 3.1328c-2.0195 2.0195-3.1328 4.7148-3.1328 7.5703 0 2.8555 1.1133 5.5508 3.1328 7.5703 4.1719 4.1719 10.961 4.1719 15.133 0 2.0195-2.0195 3.1328-4.7031 3.1328-7.5703 0-0.74609-0.082032-1.4805-0.22266-2.1953l-2.7031 2.7031c-0.27734 0.27734-0.64453 0.42969-1.0312 0.42969-0.38672 0-0.75391-0.15234-1.0312-0.42969l-3.1211-3.1211-7.5938 7.5938c-0.28516 0.28516-0.65234 0.42969-1.0312 0.42969-0.36719 0-0.74609-0.14453-1.0312-0.42969-0.54688-0.57031-0.55859-1.4922 0.011719-2.0625zm18.543-10.223 2.3789-2.3789c-3.0625-4.3672-8.1328-7.2227-13.855-7.2227-9.3281 0-16.906 7.582-16.906 16.906 0 9.3281 7.582 16.906 16.906 16.906 9.3281 0 16.918-7.582 16.918-16.906 0-2.5195-0.5625-4.918-1.5508-7.0703l-2.5312 2.5312c0.51172 1.4375 0.77734 2.9688 0.77734 4.5391 0 3.6328-1.418 7.0508-3.9883 9.6211-2.6523 2.6523-6.1445 3.9805-9.6211 3.9805-3.4805 0-6.9688-1.3281-9.6211-3.9805-2.5703-2.5703-3.9883-5.9883-3.9883-9.6211 0-3.6328 1.418-7.0508 3.9883-9.6211 2.5703-2.5703 5.9883-3.9883 9.6211-3.9883s7.0508 1.418 9.6211 3.9883c0.69922 0.70312 1.3203 1.4766 1.8516 2.3164zm-31.203 5.2656c0.070313-0.73438 0.19531-1.4492 0.34766-2.1523l-24.348-0.003906v2.1523zm-12.266-33.562-1 2.4297h7.2969v-9.2969h-3.4609zm9.1914 2.4297h7.2969l-1-2.4297-2.8281-6.8672h-3.4609l0.003906 9.2969zm18.918 2.8984h-7.9805c0.18359 2.0391 1.9062 3.6445 3.9883 3.6445 2.0977-0.003906 3.8086-1.6055 3.9922-3.6445zm-25.824 3.6406c2.082 0 3.8047-1.6016 3.9883-3.6445h-7.9805c0.18359 2.043 1.8984 3.6445 3.9922 3.6445zm10.918 0c2.082 0 3.8047-1.6016 3.9883-3.6445h-7.9805c0.1875 2.043 1.8984 3.6445 3.9922 3.6445zm13.297-6.5391-7.6641-9.2969h-3.0312l1 2.4297 2.8281 6.8672zm-26.816-9.2969h-3.0312l-7.6641 9.2969h6.8672l2.8281-6.8672zm-12.309 12.195c0.18359 2.0391 1.8984 3.6445 3.9883 3.6445 2.0938 0 3.8047-1.6016 3.9883-3.6445zm4.8086 23.172h0.87891l-0.003906-13.938c0-0.80469 0.65234-1.4492 1.4492-1.4492h8.3555c0.80469 0 1.4492 0.65234 1.4492 1.4492v13.938h9.1523c0.48047-1.2539 1.082-2.4492 1.7969-3.5625h-7.2656c-0.80469 0-1.4492-0.65234-1.4492-1.4492v-8.9883c0-0.80469 0.65234-1.4492 1.4492-1.4492h12.961c0.80469 0 1.4492 0.65234 1.4492 1.4492v3.7344c0.28516-0.16406 0.58203-0.31641 0.87891-0.46094v-5.9492c-1.8789-0.22266-3.5312-1.2031-4.6445-2.6328-1.2656 1.6328-3.2461 2.6836-5.4609 2.6836s-4.1953-1.0508-5.4609-2.6836c-1.2656 1.6328-3.2461 2.6836-5.4609 2.6836-2.2148 0-4.1953-1.0508-5.4609-2.6836-1.1133 1.4297-2.7539 2.4062-4.6445 2.6328l0.007812 16.676zm27.336-12.551h-10.051v6.082h8.082c0.61328-0.65234 1.2773-1.2656 1.9688-1.8359zm-18.102 12.215v-12.145h-5.4492v12.152h5.4492zm38.867-40.398v29.836c1.1016 0.51172 2.1523 1.1211 3.1328 1.8164v-31.652zm-56.41-0.64453-3.7031 3.7031h7.0508v-7.0508zm-5.7656 74.582h59.266v-7.0391c-1.7148 0.48828-3.5195 0.74609-5.3984 0.74609-10.633 0-19.336-8.418-19.797-18.949l-25.375-0.003906c-0.80469 0-1.4492-0.65234-1.4492-1.4492v-5.0625c0-0.80469 0.65234-1.4492 1.4492-1.4492h2.4688v-16.938c-2.7969-0.88672-4.8281-3.5-4.8281-6.5938v-1.0938c0-0.0625 0-0.11328 0.011719-0.17188 0-0.011719 0-0.019532 0.011718-0.039063 0.011719-0.050781 0.019532-0.10156 0.03125-0.15234 0-0.011719 0.011719-0.03125 0.011719-0.039063 0.03125-0.12109 0.082031-0.23438 0.14453-0.33594 0.011719-0.011719 0.011719-0.019532 0.019532-0.039063 0.03125-0.050781 0.070312-0.10156 0.11328-0.15234l10.062-12.203c0.27734-0.33594 0.68359-0.53125 1.1211-0.53125h23.547c0.4375 0 0.84766 0.19531 1.1211 0.53125l10.062 12.203c0.039063 0.050781 0.070313 0.10156 0.11328 0.15234 0.011719 0.011719 0.011719 0.019531 0.019532 0.039063 0.0625 0.10156 0.11328 0.22266 0.14453 0.33594 0 0.011719 0.011719 0.03125 0.011719 0.039063 0.011718 0.050781 0.019531 0.10156 0.03125 0.15234 0 0.011719 0 0.019531 0.011718 0.039063 0.011719 0.050781 0.011719 0.11328 0.011719 0.17188v1.0938c0 3.082-2.0312 5.7031-4.8281 6.5938v5.082c1.8281-0.5625 3.7656-0.85547 5.7656-0.85547 1.8672 0 3.6719 0.26562 5.3984 0.74609l-0.007813-34.809h-47.246l0.003907 10.562c0 0.80469-0.65234 1.4492-1.4492 1.4492h-10.574zm65.309 6.043v-14.633l-0.79688-0.79688c-0.74609 0.48047-1.5312 0.89844-2.3359 1.2773v9.5703c0 0.80469-0.65234 1.4492-1.4492 1.4492h-54.684v3.1328zm20.715-2.7578c0-0.74609-0.28516-1.4375-0.80469-1.9492l-10.352-10.344-3.8984 3.8984 10.348 10.348c1.0703 1.0703 2.8281 1.0703 3.8984 0 0.51953-0.52344 0.80859-1.2188 0.80859-1.9531z"/>
</svg>