<svg xmlns="http://www.w3.org/2000/svg" version="1.1" viewBox="-0.0 0.0 100.0 100.0">
 <path d="m80.305 55.082-4.4883-7.7773 4.4883-7.7969c0.39844-0.68359 0.16406-1.5625-0.51953-1.9609l-16.855-9.7461c-1.3047-5.9375-6.6016-10.406-12.918-10.406-6.3281 0-11.633 4.4609-12.938 10.406l-16.855 9.7461c-0.68359 0.39844-0.91797 1.2773-0.51953 1.9609l4.4883 7.7969-4.4883 7.7773c-0.39844 0.68359-0.16406 1.5625 0.51953 1.9609l4.1953 2.418v15.723c0 0.51172 0.27734 0.98828 0.71484 1.2461l24.164 13.949c0.019531 0.011719 0.03125 0.011719 0.050781 0.019532 0.082031 0.039062 0.15234 0.070312 0.24609 0.10156 0.03125 0.011719 0.0625 0.019531 0.09375 0.03125 0.11328 0.03125 0.22266 0.039062 0.33594 0.039062s0.22266-0.019531 0.33594-0.039062c0.03125-0.011719 0.0625-0.019531 0.09375-0.03125 0.082031-0.03125 0.16406-0.0625 0.24609-0.10156 0.019532-0.011719 0.039063-0.011719 0.050782-0.019532l24.133-13.949c0.4375-0.25391 0.71484-0.73438 0.71484-1.2461v-15.723l4.1953-2.418c0.67969-0.39844 0.91406-1.2773 0.51563-1.9609zm-17.09-23.805 13.887 8.0312-3.4805 6.0312-12.645-7.3047c1.3594-1.9961 2.125-4.3008 2.2383-6.7578zm-11.645 15.887h3.7773c0.23438 0 0.4375 0.19531 0.4375 0.4375v0.75391c0 0.22266-0.20312 0.4375-0.4375 0.4375h-10.723c-0.22266 0-0.4375-0.20312-0.4375-0.4375v-0.75391c0-0.23437 0.20312-0.4375 0.4375-0.4375zm-3.0195-14.246c-0.082031 0-0.15234-0.011719-0.23438-0.03125-0.71484-0.13281-1.1211-0.70312-1.2656-1.1445-0.09375-0.30469-0.070312-0.59375 0.050781-0.71484 0.15234-0.15234 0.27734-0.21484 0.39844-0.21484 0.070312 0 0.14453 0.019531 0.21484 0.050781 0.40625 0.18359 0.85547 0.78516 0.83594 1.4297zm7.3672 19.305v-0.62109c1.5508-0.27734 2.7344-1.6211 2.7344-3.2461v-0.75391c0-1.2773-0.73438-2.3672-1.7969-2.918 0.18359-1.7773 0.85547-3.1133 2.1641-4.3359l0.082031-0.082031 12.172 7.0312-19.824 11.449v-3.1016h1.0625c1.875 0 3.4062-1.5312 3.4062-3.4219zm-5.9062-31.957c5.7148 0 10.367 4.6523 10.367 10.387 0 2.9062-1.1719 5.6133-3.2969 7.5938-1.7969 1.6719-2.7969 3.6211-3.0625 6.0508h-2.5898v-9.2773c1.0195-0.5625 2.1328-1.4883 3.3047-2.9492 0.5-0.62109 0.39844-1.5195-0.22266-2.0195-0.61328-0.5-1.5195-0.39844-2.0195 0.22266-0.37891 0.46875-0.75391 0.87891-1.1328 1.2344-0.24609-1.4062-1.2031-2.7148-2.5-3.2773-1.3164-0.57031-2.7227-0.28516-3.7852 0.76562-0.89844 0.89844-1.1836 2.2344-0.76562 3.5938 0.5 1.6133 1.8281 2.8047 3.4688 3.1211 0.23438 0.039062 0.5 0.070312 0.77734 0.082031v8.5117h-2.5703c-0.26562-2.4297-1.2656-4.3789-3.0625-6.0508-2.1328-1.9883-3.3047-4.6953-3.3047-7.6016 0.003906-5.7227 4.668-10.387 10.395-10.387zm-27.113 19.039 13.887-8.0312c0.11328 2.4492 0.87891 4.7656 2.2227 6.7539l-12.645 7.3047zm0 15.973 3.4688-6.0117 17.488 10.082 4.1953 2.418-3.4883 6.0312zm25.672 31.375-21.293-12.297v-13.234l17.082 9.8672c0.22266 0.13281 0.46875 0.19531 0.71484 0.19531 0.5 0 0.98047-0.25391 1.2461-0.71484l2.2539-3.8867zm0-27.906-19.855-11.449 12.172-7.0312 0.082031 0.082031c1.3047 1.2148 1.9805 2.5508 2.1641 4.3281-1.0703 0.55078-1.8047 1.6523-1.8047 2.9297v0.75391c0 1.6328 1.1836 2.9805 2.7344 3.2461v0.62109c0 1.8867 1.5312 3.418 3.418 3.418h1.0938zm-1.0898-5.9688c-0.30469 0-0.55078-0.24609-0.55078-0.55078v-0.5625h6.1133v0.5625c0 0.30469-0.24609 0.55078-0.55078 0.55078zm25.242 21.578-21.273 12.297v-20.059l2.2344 3.8672c0.19531 0.32812 0.5 0.57031 0.86719 0.67187 0.12109 0.03125 0.24609 0.050782 0.36719 0.050782 0.24609 0 0.5-0.0625 0.71484-0.19531l17.082-9.8672v13.234zm-17.285-6.5703-3.4688-6.0312 21.664-12.5 3.4688 6.0117z"/>
 <path d="m50.012 16.906c0.79688 0 1.4375-0.64453 1.4375-1.4375v-4.6016c0-0.79688-0.64453-1.4375-1.4375-1.4375-0.79688 0-1.4375 0.64453-1.4375 1.4375v4.6016c-0.003907 0.79688 0.64062 1.4375 1.4375 1.4375z"/>
 <path d="m41.152 18.223c0.26562 0.46094 0.74609 0.71484 1.2461 0.71484 0.24609 0 0.48828-0.0625 0.71484-0.19531 0.68359-0.39844 0.92969-1.2773 0.53125-1.9609l-2.3047-4c-0.39844-0.68359-1.2773-0.91797-1.9609-0.53125-0.68359 0.39844-0.92969 1.2773-0.53125 1.9609z"/>
 <path d="m32.152 22 3.9805 2.3047c0.22266 0.13281 0.46875 0.19531 0.71484 0.19531 0.5 0 0.98047-0.25391 1.2461-0.71484 0.39844-0.68359 0.16406-1.5625-0.51953-1.9609l-3.9805-2.3047c-0.68359-0.39844-1.5625-0.16406-1.9609 0.51953-0.41016 0.68359-0.17187 1.5625 0.51953 1.9609z"/>
 <path d="m56.887 18.754c0.22266 0.13281 0.46875 0.19531 0.71484 0.19531 0.5 0 0.98047-0.25391 1.2461-0.71484l2.3047-4c0.39844-0.68359 0.16406-1.5625-0.53125-1.9609-0.68359-0.39844-1.5625-0.16406-1.9609 0.53125l-2.3047 4c-0.39453 0.67578-0.16016 1.5508 0.53125 1.9492z"/>
 <path d="m63.152 24.5c0.24609 0 0.48828-0.0625 0.71484-0.19531l3.9805-2.3047c0.68359-0.39844 0.91797-1.2773 0.51953-1.9609-0.39844-0.68359-1.2773-0.91797-1.9609-0.51953l-3.9805 2.3047c-0.68359 0.39844-0.91797 1.2773-0.51953 1.9609 0.26562 0.44922 0.74609 0.71484 1.2461 0.71484z"/>
</svg>