<svg xmlns="http://www.w3.org/2000/svg" version="1.1" viewBox="-5.0 -10.0 110.0 135.0">
 <path d="m6 48.613 6.3164 1.2461 2.5117 6.0625-3.582 5.3477c-0.37891 0.5625-0.30469 1.3164 0.17188 1.8047l8.2539 8.2656c0.48047 0.48047 1.2344 0.55078 1.8047 0.17188l5.3477-3.582 6.0625 2.5117 1.2461 6.3164c0.13281 0.67188 0.71484 1.1523 1.3984 1.1523h6.3164c1.1211 3.7852 3.1836 7.2773 6.082 10.172 4.582 4.582 10.664 7.082 17.02 7.0703 0.87891 0 1.7656-0.050782 2.6445-0.14453 0.011719 0 0.011719 0.011719 0.019531 0.011719 0.019531 0.011719 0.050781 0.019531 0.070313 0.03125 0.019531 0.011719 0.039062 0.019531 0.0625 0.019531 0.019531 0.011719 0.03125 0.011719 0.050781 0.011719 0.019531 0.011719 0.039063 0.011719 0.0625 0.019531 0.03125 0.011719 0.070313 0.019532 0.10156 0.019532 0.019531 0 0.03125 0.011718 0.050781 0.011718 0.011719 0 0.019531 0 0.03125 0.011719 0.0625 0.011719 0.12109 0.011719 0.18359 0.011719s0.12109 0 0.18359-0.011719c0.011719 0 0.019532 0 0.03125-0.011719 0.019532 0 0.03125-0.011718 0.050782-0.011718 0.03125-0.011719 0.0625-0.011719 0.10156-0.019532 0.019531-0.011718 0.039062-0.011718 0.0625-0.019531 0.019531 0 0.03125-0.011719 0.050781-0.011719 0.019531-0.011718 0.039063-0.011718 0.0625-0.019531 0.76562 0.070313 1.5312 0.11328 2.2969 0.11328 6.3672 0 12.438-2.5 17.02-7.082 5.3047-5.3047 7.8164-12.621 6.8867-20.07-0.082031-0.64453-0.59375-1.1523-1.2344-1.2344-4.5625-0.57031-9.2227 0.19531-13.355 2.1523-0.32812-3.582-1.3047-7.1016-2.8789-10.328-1.5508-3.1836-3.7031-6.082-6.2773-8.5117l5.6211-1.4688c0.62109-0.16406 1.0625-0.73438 1.0625-1.3789l-0.003906-11.711c0-0.68359-0.48047-1.2656-1.1523-1.3984l-6.3047-1.2461-2.5117-6.0625 3.582-5.3477c0.37891-0.5625 0.30469-1.3164-0.17188-1.8047l-8.2656-8.2656c-0.48047-0.48047-1.2344-0.55078-1.8047-0.17188l-5.3477 3.582-6.0508-2.5117-1.2461-6.3047c-0.13281-0.66406-0.71484-1.1523-1.3984-1.1523h-11.703c-0.68359 0-1.2656 0.48047-1.3984 1.1523l-1.2461 6.3047-6.0625 2.5117-5.3477-3.582c-0.5625-0.37891-1.3281-0.30469-1.8047 0.17188l-8.2539 8.2656c-0.48047 0.48047-0.55078 1.2344-0.17188 1.8047l3.582 5.3477-2.5117 6.0625-6.3164 1.2461c-0.67188 0.13281-1.1523 0.71484-1.1523 1.3984v11.684c0 0.68359 0.48828 1.2656 1.1523 1.3984zm37.754 20.867c4.2461-0.30469 8.5117 0.68359 12.195 2.8164 0.11328 4.2148 1.1328 8.4297 2.9883 12.215 0.28516 0.59375 0.60156 1.1719 0.92969 1.7461-3.9297-3.5117-7.2031-7.7148-9.6719-12.48-0.36719-0.70312-1.2227-0.96875-1.918-0.61328-0.70312 0.36719-0.96875 1.2227-0.61328 1.918 3.6016 6.9375 8.7969 12.766 15.195 17.094-4.8359-0.48047-9.3789-2.6016-12.918-6.1328-4.4102-4.3984-6.6367-10.391-6.1875-16.562zm48.48 0c0.44922 6.1719-1.7773 12.164-6.1836 16.57-3.4062 3.4062-7.7539 5.5-12.398 6.082 6.3555-4.3164 11.52-10.133 15.102-17.039 0.36719-0.70312 0.09375-1.5625-0.61328-1.918-0.70312-0.36719-1.5625-0.09375-1.918 0.61328-2.4688 4.7656-5.7461 8.9805-9.6719 12.488 0.32812-0.57031 0.64453-1.1523 0.92969-1.7461 1.8867-3.8555 2.918-8.1641 2.9883-12.461 3.5938-1.9766 7.7031-2.875 11.766-2.5898zm-14.602 2.0703c0 7.2539-2.8789 14.039-7.9883 19.031v-26.57c0-0.78516-0.64453-1.4297-1.4297-1.4297s-1.4297 0.64453-1.4297 1.4297v26.562c-5.1133-4.9883-7.9883-11.777-7.9883-19.031 0-7.9062 3.418-15.254 9.418-20.336 6 5.0781 9.418 12.438 9.418 20.344zm-69.93-34.848 5.9062-1.1641c0.46875-0.09375 0.85547-0.40625 1.0391-0.85547l3.0938-7.4688c0.18359-0.4375 0.13281-0.9375-0.13281-1.3359l-3.3555-5.0117 6.6016-6.6016 5 3.3555c0.39844 0.26562 0.89844 0.31641 1.3359 0.13281l7.4688-3.1016c0.4375-0.18359 0.76562-0.57031 0.85547-1.0391l1.1641-5.9062h9.3359l1.1719 5.9062c0.09375 0.46875 0.40625 0.85547 0.85547 1.0391l7.4688 3.1016c0.4375 0.18359 0.94922 0.13281 1.3359-0.13281l5-3.3555 6.6016 6.6016-3.3555 5c-0.26562 0.39844-0.31641 0.89844-0.13281 1.3359l3.1016 7.4688c0.18359 0.4375 0.57031 0.76562 1.0391 0.85547l5.9062 1.1641v9.4062l-7.1836 1.8789c-0.18359 0.050782-0.35547 0.13281-0.51953 0.24609-3.5312 2.7461-6.4297 6.3164-8.3984 10.328-1.6016 3.2852-2.5938 6.8789-2.8984 10.531-4.2344-2.1133-9.0391-2.9492-13.777-2.3555-0.59766 0.10938-1.1094 0.62109-1.1914 1.2734-0.29687 2.3867-0.24609 4.7539 0.14453 7.0508h-4.4805l-1.1641-5.9062c-0.09375-0.46875-0.40625-0.85547-0.85547-1.0391l-7.4688-3.0938c-0.4375-0.18359-0.94922-0.13281-1.3359 0.13281l-5 3.3555-6.6016-6.6016 3.3555-5.0117c0.26563-0.39844 0.31641-0.89844 0.13281-1.3359l-3.0938-7.4688c-0.18359-0.4375-0.57031-0.76562-1.0391-0.85547l-5.9062-1.1641-0.003906-9.3594zm17.645 20.809c4.1133 4.0938 9.7852 6.6133 16.031 6.6133s11.906-2.5312 16.02-6.6133c0.082031-0.0625 0.15234-0.14453 0.22266-0.22266 4.0312-4.1016 6.5117-9.7227 6.5117-15.918 0-6.1719-2.4805-11.785-6.4883-15.887-0.082031-0.11328-0.18359-0.20312-0.28516-0.28516-4.1133-4.0625-9.7656-6.582-15.988-6.582s-11.879 2.5117-15.988 6.582c-0.10156 0.082031-0.19531 0.17188-0.27734 0.27734-4.0117 4.1016-6.4883 9.7148-6.4883 15.898 0 6.1953 2.4883 11.816 6.5117 15.918 0.066406 0.085937 0.13672 0.15625 0.21875 0.21875zm1.1133-29.297c1.1211 0.73438 2.2969 1.3789 3.5 1.9297-0.96094 2.9805-1.5312 6.3281-1.6523 9.8047h-6.7852c0.3125-4.4883 2.1289-8.5625 4.9375-11.734zm34.762 11.734h-6.7852c-0.12109-3.4883-0.69531-6.8281-1.6523-9.8047 1.2031-0.55078 2.3789-1.1953 3.5-1.9297 2.8164 3.1719 4.6211 7.2461 4.9375 11.734zm-4.9258 14.59c-1.1211-0.73437-2.2969-1.3789-3.5-1.9297 0.96094-2.9805 1.5312-6.3164 1.6523-9.8047h6.7734c-0.31641 4.4805-2.1211 8.5508-4.9258 11.734zm-13.5-1.5273c2.1719 0.12109 4.2969 0.53125 6.3281 1.2148-1.6016 3.6133-3.8359 6.1445-6.3281 6.8555zm0-2.8594v-7.3477h8.7969c-0.12109 3.1523-0.64453 6.1328-1.4609 8.7461-2.3555-0.79688-4.8164-1.2656-7.3359-1.3984zm0-10.203v-7.3555c2.5195-0.13281 4.9805-0.60156 7.3281-1.3984 0.81641 2.6133 1.3359 5.5938 1.4609 8.7539zm0-10.215v-8.0625c2.4883 0.70312 4.7344 3.2344 6.3281 6.8477-2.0312 0.68359-4.1562 1.082-6.3281 1.2148zm-2.8477 0c-2.1719-0.12109-4.2852-0.53125-6.3281-1.2031 1.5938-3.6133 3.8281-6.1445 6.3281-6.8477zm0 2.8594v7.3555h-8.7852c0.12109-3.1641 0.64453-6.1445 1.4609-8.7461 2.3438 0.78516 4.8047 1.2578 7.3242 1.3906zm0 10.203v7.3477c-2.5195 0.13281-4.9805 0.60156-7.3281 1.3867-0.81641-2.6133-1.3359-5.5938-1.4609-8.7461h8.7891zm0 10.215v8.0625c-2.4883-0.71484-4.7227-3.2461-6.3281-6.8555 2.0312-0.67969 4.1562-1.0859 6.3281-1.207zm-8.0703 4.1211c0.51172 0.92969 1.0625 1.7773 1.6445 2.5312-1.8047-0.77734-3.4805-1.8164-4.9609-3.0703 0.78516-0.48047 1.5938-0.91797 2.418-1.3047 0.27344 0.62891 0.57031 1.25 0.89844 1.8438zm18.988 0c0.32812-0.59375 0.62109-1.2031 0.90625-1.8477 0.82812 0.38672 1.6328 0.82812 2.418 1.3047-1.4883 1.2539-3.1523 2.2969-4.9609 3.0703 0.58594-0.75391 1.125-1.5977 1.6367-2.5273zm0.91016-29.672c-0.28516-0.64453-0.58203-1.2539-0.90625-1.8477-0.51172-0.92969-1.0625-1.7773-1.6445-2.5312 1.8047 0.77734 3.4805 1.8164 4.9609 3.0703-0.78125 0.49219-1.5859 0.91797-2.4102 1.3086zm-19.898-1.8398c-0.32812 0.59375-0.62109 1.2031-0.90625 1.8477-0.82812-0.38672-1.6328-0.82812-2.418-1.3047 1.4805-1.2539 3.1523-2.2969 4.9609-3.0703-0.58594 0.75391-1.1289 1.5898-1.6367 2.5273zm-3.5742 17.176c0.12109 3.4805 0.68359 6.8281 1.6523 9.8047-1.2031 0.55078-2.3789 1.2031-3.5 1.9297-2.8047-3.1719-4.6133-7.2539-4.9375-11.734z"/>
<text x="0.0" y="117.5" font-size="5.0" font-weight="bold" font-family="Arbeit Regular, Helvetica, Arial-Unicode, Arial, Sans-serif" fill="#000000">Created by Ali Khamdan</text><text x="0.0" y="122.5" font-size="5.0" font-weight="bold" font-family="Arbeit Regular, Helvetica, Arial-Unicode, Arial, Sans-serif" fill="#000000">from Noun Project</text></svg>